<svg width="256" height="26" viewBox="0 0 256 26" fill="none" xmlns="http://www.w3.org/2000/svg">
<mask id="mask0_7_7343" style="mask-type:luminance" maskUnits="userSpaceOnUse" x="0" y="0" width="256" height="26">
<path d="M0.734375 0.239624H255.734V25.2396H0.734375V0.239624Z" fill="white"/>
</mask>
<g mask="url(#mask0_7_7343)">
<path d="M98.7188 14.6094L31.8073 14.6042V15.8177H98.2292L105.391 22.7552L106.24 21.8802L98.724 14.599H98.7188V14.6094ZM157.234 10.7605L224.141 10.7657V9.55212H157.719L150.557 2.61462L149.714 3.48962L157.229 10.7709H157.234V10.7605ZM112.542 1.53129L111.682 0.671916L100.333 12.0209H1.04688V13.2344H100.104L111.677 24.8073L112.536 23.948L101.323 12.7344L112.542 1.53129ZM98.7188 10.8698H98.724L106.24 3.59379L105.391 2.724L98.2292 9.6615H31.8073V10.875H98.7188V10.8698ZM157.234 14.4948H157.229L149.714 21.7657L150.557 22.6407L157.719 15.7032H224.141V14.4896H157.234V14.4948ZM151.698 12.6094L143.745 4.90629L142.896 5.78129L149.974 12.6355L143.12 19.7136L143.995 20.5625L151.698 12.6094ZM155.667 12.0209L144.313 0.671916L143.453 1.53129L154.667 12.7396L143.453 23.9532L144.313 24.8125L155.885 13.2396H254.948V12.0261H155.656L155.667 12.0209ZM138.885 4.48442L135.573 7.79692L128.01 0.239624L120.391 7.85942L117.01 4.47921L108.75 12.7344L117.01 20.9948L120.391 17.6094L128.01 25.2344L135.568 17.6771L138.88 20.9896L147.135 12.7344L138.88 4.474L138.885 4.48442ZM117.01 19.2813L110.469 12.7396L117.01 6.20317L119.531 8.724L115.516 12.7396L119.531 16.7605L117.01 19.2813ZM117.24 12.7396L120.396 9.58337L123.552 12.7396L120.396 15.9011L117.24 12.7396ZM128.016 23.5209L121.255 16.7605L125.271 12.7396L121.255 8.724L128.016 1.96358L134.714 8.65629L130.625 12.7396L134.714 16.8282L128.016 23.5209ZM132.344 12.7396L135.568 9.51567L138.792 12.7396L135.568 15.9688L132.344 12.7396ZM136.432 16.8282L140.521 12.7396L136.432 8.65629L138.885 6.20317L145.427 12.7396L138.885 19.2813L136.432 16.8282ZM113.104 5.7865L112.255 4.9115L104.302 12.6146L112.005 20.5677L112.88 19.7188L106.026 12.6407L113.104 5.7865Z" fill="#7B3C29"/>
</g>
</svg>
